<svg xmlns="http://www.w3.org/2000/svg" xmlns:xlink="http://www.w3.org/1999/xlink" width="500" zoomAndPan="magnify" viewBox="0 0 375 374.999991" height="500" preserveAspectRatio="xMidYMid meet" version="1.0"><defs><clipPath id="3201c39201"><path d="M 13.828125 11 L 358 11 L 358 311 L 13.828125 311 Z M 13.828125 11 " clip-rule="nonzero"/></clipPath><clipPath id="1067cb467f"><path d="M 63 167 L 361.078125 167 L 361.078125 363 L 63 363 Z M 63 167 " clip-rule="nonzero"/></clipPath></defs><g clip-path="url(#3201c39201)"><path fill="#1e214b" d="M 208.804688 292.167969 C 203.039062 293.03125 197.007812 293.464844 190.71875 293.464844 C 159.667969 293.464844 134.398438 283.558594 114.910156 263.738281 C 95.75 243.585938 86.171875 219.144531 86.171875 190.402344 C 86.171875 156.378906 96.082031 129.292969 115.902344 109.140625 C 135.722656 88.992188 161.488281 78.914062 193.199219 78.914062 C 238.453125 78.914062 267.6875 97.910156 280.902344 135.898438 L 357.207031 135.898438 C 347.628906 95.597656 327.644531 64.875 297.253906 43.734375 C 266.535156 21.933594 231.515625 11.03125 192.207031 11.03125 C 141.667969 11.03125 99.21875 27.878906 64.863281 61.574219 C 30.839844 95.265625 13.828125 138.375 13.828125 190.898438 C 13.828125 276.765625 68.859375 316.417969 149.796875 309.164062 C 170.371094 307.320312 190.429688 301.859375 208.804688 292.167969 Z M 208.804688 292.167969 " fill-opacity="1" fill-rule="nonzero"/></g><g clip-path="url(#1067cb467f)"><path fill="#0cc0df" d="M 361.175781 167.113281 L 361.175781 354.910156 L 301.957031 354.910156 L 302.210938 308.332031 C 247.011719 385.753906 125.765625 373.695312 63.875 311.800781 C 161.359375 350.738281 254.976562 306.589844 283.875 230.539062 L 184.28125 230.539062 L 184.28125 167.113281 Z M 361.175781 167.113281 " fill-opacity="1" fill-rule="nonzero"/></g></svg>